<?xml version="1.0" encoding="iso-8859-1"?>
<!-- Generator: Adobe Illustrator 19.0.0, SVG Export Plug-In . SVG Version: 6.00 Build 0)  -->
<svg version="1.1" id="Capa_1" xmlns="http://www.w3.org/2000/svg" xmlns:xlink="http://www.w3.org/1999/xlink" x="0px" y="0px"
	 viewBox="0 0 489.663 489.663" style="enable-background:new 0 0 489.663 489.663;" xml:space="preserve">
<g>
	<g>
		<g>
			<path d="M467.144,103.963l5.6-5.6c22.5-22.5,22.5-58.9,0-81.4c-22.4-22.6-58.9-22.6-81.3-0.1l-5.6,5.6L467.144,103.963z"/>
		</g>
		<g>
			<path d="M324.944,297.763v124.5h-257.5v-257.5h124.5l67.4-67.4h-244.6c-8.1,0-14.7,6.6-14.7,14.7v362.9c0,8.1,6.6,14.7,14.7,14.7
				h362.9c8.1,0,14.7-6.6,14.7-14.7v-244.6L324.944,297.763z"/>
		</g>
		<g>
			<polygon points="360.644,47.663 132.244,276.063 114.044,375.663 213.644,357.463 442.044,129.063 			"/>
		</g>
	</g>
</g>
<g>
</g>
<g>
</g>
<g>
</g>
<g>
</g>
<g>
</g>
<g>
</g>
<g>
</g>
<g>
</g>
<g>
</g>
<g>
</g>
<g>
</g>
<g>
</g>
<g>
</g>
<g>
</g>
<g>
</g>
</svg>
