<?xml version="1.0" encoding="iso-8859-1"?>
<!-- Generator: Adobe Illustrator 16.0.0, SVG Export Plug-In . SVG Version: 6.00 Build 0)  -->
<!DOCTYPE svg PUBLIC "-//W3C//DTD SVG 1.1//EN" "http://www.w3.org/Graphics/SVG/1.1/DTD/svg11.dtd">
<svg version="1.1" id="Capa_1" xmlns="http://www.w3.org/2000/svg" xmlns:xlink="http://www.w3.org/1999/xlink" x="0px" y="0px"
	 width="125.597px" height="125.597px" viewBox="0 0 125.597 125.597" style="enable-background:new 0 0 125.597 125.597;"
	 xml:space="preserve">
<g>
	<polygon points="36.786,110.525 104.286,42.625 82.085,20.424 14.585,88.325 	"/>
	<path d="M112.686,34.125l9.8-9.9c2.7-2.699,2.7-7.1,0-9.8l-12.3-12.399c-2.7-2.7-7.101-2.7-9.8,0l-9.801,9.899L112.686,34.125z"/>
	<path d="M7.886,96.224l-6.7,25.601c-0.6,2.3,1.6,4.399,3.9,3.6l24.1-8.1c0.1,0,0.1-0.101,0.2-0.101l-21.4-21.3
		C7.886,96.025,7.886,96.125,7.886,96.224z"/>
</g>
<g>
</g>
<g>
</g>
<g>
</g>
<g>
</g>
<g>
</g>
<g>
</g>
<g>
</g>
<g>
</g>
<g>
</g>
<g>
</g>
<g>
</g>
<g>
</g>
<g>
</g>
<g>
</g>
<g>
</g>
</svg>
